<svg width="40" height="40" viewBox="0 0 40 40" fill="none" xmlns="http://www.w3.org/2000/svg">
<g id="Frame">
<g id="Group">
<path id="Vector" d="M16.4294 23.3075L22.6781 17.0588L23.5619 17.9425L17.3131 24.1913L16.4294 23.3075ZM22.5 20.625C21.4662 20.625 20.625 21.4662 20.625 22.5C20.625 23.5338 21.4662 24.375 22.5 24.375C23.5338 24.375 24.375 23.5338 24.375 22.5C24.375 21.4662 23.5338 20.625 22.5 20.625ZM22.5 23.125C22.3342 23.125 22.1753 23.0592 22.0581 22.9419C21.9408 22.8247 21.875 22.6658 21.875 22.5C21.875 22.3342 21.9408 22.1753 22.0581 22.0581C22.1753 21.9408 22.3342 21.875 22.5 21.875C22.6658 21.875 22.8247 21.9408 22.9419 22.0581C23.0592 22.1753 23.125 22.3342 23.125 22.5C23.125 22.6658 23.0592 22.8247 22.9419 22.9419C22.8247 23.0592 22.6658 23.125 22.5 23.125ZM19.375 18.75C19.375 17.7162 18.5338 16.875 17.5 16.875C16.4662 16.875 15.625 17.7162 15.625 18.75C15.625 19.7838 16.4662 20.625 17.5 20.625C18.5338 20.625 19.375 19.7838 19.375 18.75ZM16.875 18.75C16.875 18.5842 16.9408 18.4253 17.0581 18.3081C17.1753 18.1908 17.3342 18.125 17.5 18.125C17.6658 18.125 17.8247 18.1908 17.9419 18.3081C18.0592 18.4253 18.125 18.5842 18.125 18.75C18.125 18.9158 18.0592 19.0747 17.9419 19.1919C17.8247 19.3092 17.6658 19.375 17.5 19.375C17.3342 19.375 17.1753 19.3092 17.0581 19.1919C16.9408 19.0747 16.875 18.9158 16.875 18.75Z" fill="#FF6647"/>
<path id="Vector_2" d="M26.2483 10.6245H23.7483C23.5826 10.6245 23.4236 10.6904 23.3064 10.8076C23.1892 10.9248 23.1233 11.0838 23.1233 11.2495V12.3239L20.389 10.1364C20.2779 10.0481 20.1402 10 19.9983 10C19.8565 10 19.7188 10.0481 19.6077 10.1364L10.2327 17.6364C10.1315 17.7173 10.058 17.8277 10.0223 17.9522C9.98656 18.0767 9.99041 18.2093 10.0333 18.3315C10.0762 18.4537 10.156 18.5596 10.2617 18.6345C10.3674 18.7094 10.4938 18.7496 10.6233 18.7495H11.2483V26.8745C11.2483 27.0403 11.3142 27.1993 11.4314 27.3165C11.5486 27.4337 11.7076 27.4995 11.8733 27.4995H28.1233C28.2891 27.4995 28.4481 27.4337 28.5653 27.3165C28.6825 27.1993 28.7483 27.0403 28.7483 26.8745V18.7495H29.3733C29.5029 18.7496 29.6292 18.7094 29.735 18.6345C29.8407 18.5596 29.9205 18.4537 29.9634 18.3315C30.0063 18.2093 30.0101 18.0767 29.9744 17.9522C29.9387 17.8277 29.8651 17.7173 29.764 17.6364L26.8733 15.3245V11.2495C26.8733 11.0838 26.8075 10.9248 26.6903 10.8076C26.5731 10.6904 26.4141 10.6245 26.2483 10.6245ZM27.7477 17.6245C27.6702 17.6829 27.6074 17.7584 27.5641 17.8452C27.5208 17.9319 27.4983 18.0276 27.4983 18.1245V26.2495H12.4983V18.1245C12.4983 17.9202 12.4002 17.7389 12.249 17.6245L19.9983 11.4245L23.3577 14.1127C23.4497 14.186 23.5605 14.2319 23.6775 14.2451C23.7944 14.2584 23.9127 14.2383 24.0187 14.1874C24.1248 14.1364 24.2143 14.0565 24.277 13.957C24.3398 13.8574 24.3731 13.7422 24.3733 13.6245V11.8745H25.6233V15.6245C25.6233 15.7183 25.6444 15.8108 25.6849 15.8953C25.7255 15.9798 25.7845 16.0541 25.8577 16.1127L27.7477 17.6245Z" fill="#FF6647"/>
<path id="Vector_3" d="M38.4881 4.49187L34.1131 1.36688C34.0072 1.29103 33.8803 1.25016 33.75 1.25H6.25C6.08424 1.25 5.92527 1.31585 5.80806 1.43306C5.69085 1.55027 5.625 1.70924 5.625 1.875V23.125H6.875V2.5H31.8L29.0119 4.49187C28.9039 4.56868 28.8232 4.67783 28.7814 4.80354C28.7396 4.92925 28.7388 5.06501 28.7792 5.19117C28.8197 5.31734 28.8992 5.42737 29.0063 5.50536C29.1134 5.58335 29.2425 5.62525 29.375 5.625H30.625V10C30.625 10.1658 30.6908 10.3247 30.8081 10.4419C30.9253 10.5592 31.0842 10.625 31.25 10.625H36.25C36.4158 10.625 36.5747 10.5592 36.6919 10.4419C36.8092 10.3247 36.875 10.1658 36.875 10V5.625H38.125C38.2573 5.62483 38.3861 5.5827 38.4929 5.50466C38.5997 5.42662 38.679 5.31671 38.7194 5.19074C38.7598 5.06476 38.7591 4.92923 38.7176 4.80364C38.676 4.67806 38.5957 4.5689 38.4881 4.49187ZM35.625 5V9.375H31.875V5C31.875 4.84623 31.8184 4.69785 31.7159 4.58324C31.6134 4.46862 31.4722 4.39582 31.3194 4.37875L33.75 2.64313L36.1806 4.37875C36.0278 4.39582 35.8866 4.46862 35.7841 4.58324C35.6816 4.69785 35.625 4.84623 35.625 5Z" fill="#FF6647"/>
<path id="Vector_4" d="M30.625 11.875H36.875V13.125H30.625V11.875ZM30.625 14.375H36.875V15.625H30.625V14.375ZM3.125 26.875H9.375V28.125H3.125V26.875ZM3.125 24.375H9.375V25.625H3.125V24.375Z" fill="#FF6647"/>
<path id="Vector_5" d="M33.1242 37.5H8.19921L10.9873 35.5081C11.0953 35.4313 11.176 35.3222 11.2178 35.1965C11.2596 35.0707 11.2604 34.935 11.22 34.8088C11.1795 34.6827 11.1 34.5726 10.9929 34.4946C10.8858 34.4167 10.7567 34.3748 10.6242 34.375H9.37421V30C9.37421 29.8342 9.30836 29.6753 9.19115 29.5581C9.07394 29.4408 8.91497 29.375 8.74921 29.375H3.74921C3.58345 29.375 3.42448 29.4408 3.30727 29.5581C3.19006 29.6753 3.12421 29.8342 3.12421 30V34.375H1.87421C1.74193 34.3752 1.61311 34.4173 1.5063 34.4953C1.39948 34.5734 1.32018 34.6833 1.27982 34.8093C1.23945 34.9352 1.24009 35.0708 1.28165 35.1964C1.32321 35.3219 1.40354 35.4311 1.51109 35.5081L5.88609 38.6331C5.99186 38.7092 6.1189 38.7501 6.24921 38.75H33.7492C33.915 38.75 34.0739 38.6842 34.1912 38.5669C34.3084 38.4497 34.3742 38.2908 34.3742 38.125V16.875H33.1242V37.5ZM3.81859 35.6213C3.9714 35.6042 4.11256 35.5314 4.21507 35.4168C4.31758 35.3021 4.37424 35.1538 4.37421 35V30.625H8.12421V35C8.12418 35.1538 8.18084 35.3021 8.28335 35.4168C8.38586 35.5314 8.52702 35.6042 8.67984 35.6213L6.24921 37.3569L3.81859 35.6213Z" fill="#FF6647"/>
</g>
</g>
</svg>
