<svg width="40" height="40" viewBox="0 0 40 40" fill="none" xmlns="http://www.w3.org/2000/svg">
<g id="Frame">
<g id="Group">
<path id="Vector" d="M13.125 38.75H34.375C36.0981 38.75 37.5 37.3481 37.5 35.625V4.375C37.5 2.65188 36.0981 1.25 34.375 1.25H13.125C11.4019 1.25 10 2.65188 10 4.375V26.875H11.25V4.375C11.25 3.34125 12.0912 2.5 13.125 2.5H34.375C35.4088 2.5 36.25 3.34125 36.25 4.375V35.625C36.25 36.6587 35.4088 37.5 34.375 37.5H13.125C12.0912 37.5 11.25 36.6587 11.25 35.625V30.625H10V35.625C10 37.3481 11.4019 38.75 13.125 38.75Z" fill="#FF6647"/>
<path id="Vector_2" d="M12.5 33.125C12.5 33.2908 12.5658 33.4497 12.6831 33.5669C12.8003 33.6842 12.9592 33.75 13.125 33.75H34.375C34.5408 33.75 34.6997 33.6842 34.8169 33.5669C34.9342 33.4497 35 33.2908 35 33.125V4.375C35 4.20924 34.9342 4.05027 34.8169 3.93306C34.6997 3.81585 34.5408 3.75 34.375 3.75H13.125C12.9592 3.75 12.8003 3.81585 12.6831 3.93306C12.5658 4.05027 12.5 4.20924 12.5 4.375V26.875H13.75V5H33.75V32.5H13.75V30.625H12.5V33.125ZM20.625 35H26.875V36.25H20.625V35ZM3.75 38.75C4.78375 38.75 5.625 37.9087 5.625 36.875V8.125C5.625 8.02812 5.6025 7.93188 5.55938 7.84563L4.30938 5.34563C4.09688 4.92188 3.40375 4.92188 3.19125 5.34563L1.94125 7.84563C1.89757 7.93227 1.87487 8.02797 1.875 8.125V10.625H3.125V8.2725L3.75 7.0225L4.375 8.2725V33.125H3.125V11.875H1.875V36.875C1.875 37.9087 2.71625 38.75 3.75 38.75ZM4.375 34.375V36.875C4.3678 37.0359 4.29881 37.1879 4.18239 37.2992C4.06596 37.4105 3.91109 37.4727 3.75 37.4727C3.58891 37.4727 3.43404 37.4105 3.31761 37.2992C3.20119 37.1879 3.1322 37.0359 3.125 36.875V34.375H4.375ZM4.375 1.25H3.75C3.58424 1.25 3.42527 1.31585 3.30806 1.43306C3.19085 1.55027 3.125 1.70924 3.125 1.875V2.5H4.375V1.25ZM7.5 10.4613H8.75V11.6831H7.5V10.4613ZM7.5 8.01813H8.75V9.24H7.5V8.01813ZM7.5 12.9044H8.75V14.1262H7.5V12.9044ZM7.5 17.7913H8.75V19.0131H7.5V17.7913ZM7.5 20.2344H8.75V21.4563H7.5V20.2344ZM7.5 15.3481H8.75V16.57H7.5V15.3481ZM7.5 22.6775H8.75V23.8994H7.5V22.6775Z" fill="#FF6647"/>
<path id="Vector_3" d="M13.1653 28.1252H14.3872V29.3752H13.1653V28.1252ZM8.75031 25.1215H7.50031V25.6252C7.50031 25.9127 7.53344 26.1996 7.59781 26.4777L8.81469 26.1946C8.7719 26.0078 8.7503 25.8168 8.75031 25.6252V25.1215ZM11.9434 29.3752V28.1252H11.2516C11.1084 28.1252 10.9666 28.1127 10.8291 28.0896L10.6203 29.3221C10.8253 29.3571 11.0372 29.3752 11.2503 29.3752H11.9434ZM7.50031 5.57461H8.75031V6.79648H7.50031V5.57461ZM9.25844 28.8027L9.92344 27.7446C9.64595 27.5707 9.40518 27.3441 9.21469 27.0777L8.19906 27.8059C8.48656 28.2059 8.84281 28.5415 9.25844 28.8027ZM8.67031 4.23023C8.57066 3.74982 8.37671 3.29394 8.09969 2.88898L7.06719 3.59336C7.25281 3.86523 7.38031 4.16523 7.44719 4.48523L8.67031 4.23023ZM7.06281 1.86773C6.65361 1.5975 6.19503 1.4108 5.71344 1.31836L5.47656 2.54523C5.79719 2.60711 6.10031 2.73086 6.37531 2.91211L7.06281 1.86773ZM15.2978 17.5927L15.9534 18.6571L18.1253 17.3209V28.1252H15.6253V29.3752H18.1253V30.6252H19.3753V29.3752H23.1253V30.6252H24.3753V29.3752H28.1253V30.6252H29.3753V29.3752H31.8753V28.1252H29.3753V26.8752H28.1253V28.1252H24.3753V26.8752H23.1253V28.1252H19.3753V25.6252H28.7503C28.9161 25.6252 29.075 25.5594 29.1923 25.4422C29.3095 25.325 29.3753 25.166 29.3753 25.0002V18.7502C29.3753 18.6442 29.3484 18.54 29.297 18.4473C29.2456 18.3545 29.1715 18.2764 29.0816 18.2202L24.0816 15.0952C23.982 15.0334 23.8672 15.0006 23.75 15.0006C23.6328 15.0006 23.518 15.0334 23.4184 15.0952L19.3753 17.6221V16.5515L23.7503 13.859L31.5478 18.6571L32.2034 17.5927L28.1253 15.0834V13.1252H26.8753V14.3146L24.0778 12.5934C23.9792 12.5326 23.8658 12.5005 23.75 12.5005C23.6342 12.5005 23.5207 12.5326 23.4222 12.5934L19.3753 15.0834V9.37523H23.1253V10.6252H24.3753V9.37523H28.1253V10.6252H29.3753V9.37523H31.8753V8.12523H29.3753V6.87523H28.1253V8.12523H24.3753V6.87523H23.1253V8.12523H19.3753V6.87523H18.1253V8.12523H15.6253V9.37523H18.1253V15.8527L15.2978 17.5927ZM24.3753 24.3752H23.1253V21.8752H24.3753V24.3752ZM23.7503 16.3621L28.1253 19.0965V24.3752H25.6253V21.2502C25.6253 21.0845 25.5595 20.9255 25.4423 20.8083C25.325 20.6911 25.1661 20.6252 25.0003 20.6252H22.5003C22.3346 20.6252 22.1756 20.6911 22.0584 20.8083C21.9412 20.9255 21.8753 21.0845 21.8753 21.2502V24.3752H19.3753V19.0971L23.7503 16.3621Z" fill="#FF6647"/>
</g>
</g>
</svg>
