<svg width="40" height="40" viewBox="0 0 40 40" fill="none" xmlns="http://www.w3.org/2000/svg">
<g id="Frame">
<g id="Group">
<path id="Vector" d="M22.6792 28.9373C22.6211 28.9967 22.5753 29.0671 22.5446 29.1444C22.514 29.2216 22.4989 29.3042 22.5005 29.3873L22.5923 34.0261C22.6087 34.9421 22.2613 35.8272 21.6261 36.4873C21.335 36.7914 20.9856 37.0337 20.5989 37.1999C20.2121 37.366 19.7958 37.4525 19.3748 37.4542H6.87547C5.77047 37.4542 4.74109 36.9598 4.04984 36.0986C3.35859 35.2373 3.09922 34.1236 3.33797 33.0461C3.41297 32.7117 3.45234 32.3673 3.45484 32.0211L4.37234 23.1436C4.37422 23.1223 4.37547 23.1005 4.37547 23.0792C4.37547 20.0686 5.90422 17.4086 8.22609 15.8336C10.1992 15.5267 12.0355 14.8411 12.8923 14.4861C13.5498 15.4298 15.2142 17.5267 17.3492 18.0605L17.6517 16.848C16.3136 16.5136 15.1448 15.3305 14.4236 14.4386C16.4385 14.7387 18.2858 15.7314 19.648 17.2461L20.5792 16.4123C19.461 15.1688 18.0491 14.2253 16.4723 13.668C17.645 13.1847 18.6982 12.4516 19.5585 11.5196C20.4188 10.5876 21.0655 9.47923 21.4536 8.27171L20.2648 7.88734C19.8653 9.1296 19.1475 10.2456 18.1828 11.1243C17.2181 12.0031 16.0401 12.6139 14.7661 12.8961C15.7296 11.7119 16.254 10.2309 16.2505 8.70421H15.0005C15.0005 10.1492 14.438 11.508 13.4161 12.5305L12.8792 13.0667C12.8323 13.0655 12.7861 13.0623 12.7398 13.0598L11.6392 11.9598C11.1615 11.4792 10.8156 10.8837 10.6347 10.2307C10.4539 9.57759 10.4442 8.88896 10.6067 8.23109L9.39484 7.92796C8.98047 9.58359 9.43109 11.3486 10.5573 12.6167C7.68422 11.5642 5.62547 8.81109 5.62547 5.57921V4.84671C5.62547 4.45921 5.92109 4.30671 6.01109 4.26921C6.12498 4.22019 6.25105 4.20685 6.37268 4.23096C6.4943 4.25506 6.60576 4.31547 6.69234 4.40421L7.97922 5.69109C8.1612 5.87466 8.37949 6.01823 8.62013 6.11261C8.86077 6.207 9.11846 6.25011 9.37672 6.23921C9.63474 6.22905 9.8879 6.16581 10.1204 6.05344C10.3529 5.94106 10.5597 5.78197 10.728 5.58609L12.6511 3.34296C12.8917 3.06171 13.3586 3.06171 13.6005 3.34296L15.5223 5.58609C15.6908 5.78193 15.8977 5.94099 16.1303 6.05336C16.3629 6.16572 16.6161 6.22899 16.8742 6.23921C17.1325 6.24992 17.3901 6.20671 17.6307 6.11234C17.8713 6.01797 18.0896 5.8745 18.2717 5.69109L19.5586 4.40421C19.645 4.31517 19.7565 4.25455 19.8782 4.23043C19.9999 4.20631 20.126 4.21984 20.2398 4.26921C20.3298 4.30671 20.6255 4.45921 20.6255 4.84671V5.57859C20.6255 5.96796 20.5955 6.35609 20.5367 6.73234L21.7723 6.92484C21.8405 6.48546 21.8755 6.03234 21.8755 5.57921V4.84671C21.8755 4.07421 21.4317 3.41046 20.7173 3.11421C20.3754 2.96876 19.9976 2.92971 19.6331 3.00218C19.2687 3.07465 18.9345 3.25526 18.6742 3.52046L17.388 4.80734C17.3277 4.86914 17.2549 4.91739 17.1745 4.94886C17.0941 4.98032 17.0079 4.9943 16.9217 4.98984C16.8356 4.98677 16.751 4.96578 16.6734 4.92823C16.5959 4.89067 16.5269 4.83737 16.4711 4.77171L14.5492 2.52859C14.373 2.32351 14.1546 2.15893 13.9089 2.04612C13.6632 1.93331 13.396 1.87494 13.1256 1.875C12.8553 1.87506 12.5881 1.93355 12.3425 2.04647C12.0968 2.15938 11.8784 2.32406 11.7023 2.52921L9.77922 4.77234C9.72352 4.83801 9.65472 4.89133 9.57724 4.92889C9.49975 4.96645 9.41528 4.98742 9.32922 4.99046C9.24306 4.99432 9.15705 4.98008 9.07675 4.94864C8.99644 4.91721 8.92361 4.86928 8.86297 4.80796L7.57609 3.52109C7.316 3.25559 6.98183 3.07477 6.6173 3.00229C6.25277 2.92981 5.87484 2.96903 5.53297 3.11484C5.18813 3.25347 4.89316 3.49294 4.68664 3.80194C4.48012 4.11094 4.37167 4.47507 4.37547 4.84671V5.57859C4.37547 9.22171 6.61422 12.3486 9.78734 13.6636C9.08772 13.9117 8.41812 14.2375 7.79109 14.6348C5.83297 14.8998 3.91922 14.7055 3.02047 13.3573L1.98047 14.0505C2.90172 15.4323 4.43672 15.9323 6.08672 15.9836C5.15185 16.9075 4.40894 18.0072 3.90073 19.2194C3.39252 20.4316 3.12904 21.7323 3.12547 23.0467L2.20734 31.9236C2.20537 31.945 2.20433 31.9665 2.20422 31.988C2.20422 32.253 2.17484 32.5173 2.11734 32.7742C1.9576 33.4866 1.96068 34.2259 2.12635 34.937C2.29203 35.6481 2.61603 36.3126 3.07422 36.8811C3.52966 37.4514 4.10798 37.9116 4.76605 38.2273C5.42413 38.5429 6.14497 38.706 6.87484 38.7042H19.4348C20.5986 38.6905 21.6955 38.2117 22.5236 37.3573C23.3898 36.4573 23.8638 35.2506 23.8417 34.0017L23.7636 29.9998H38.7505V28.7498H23.1255C23.0424 28.7498 22.9601 28.7664 22.8834 28.7986C22.8068 28.8308 22.7374 28.878 22.6792 28.9373Z" fill="#FF6647"/>
<path id="Vector_2" d="M13.125 19.3295C8.98937 19.3295 5.625 22.6938 5.625 26.8295C5.625 30.9651 8.98937 34.3295 13.125 34.3295C17.2606 34.3295 20.625 30.9651 20.625 26.8295C20.625 22.6938 17.2606 19.3295 13.125 19.3295ZM6.875 26.8295C6.875 23.5938 9.34625 20.9257 12.5 20.6113V21.8613C11.0975 22.0188 10 23.1982 10 24.642C10 26.1926 11.2619 27.4545 12.8125 27.4545H13.4375C14.2994 27.4545 15 28.1557 15 29.017C15 29.8782 14.2994 30.5795 13.4375 30.5795H12.8125C12.3983 30.579 12.0011 30.4142 11.7082 30.1213C11.4153 29.8284 11.2505 29.4312 11.25 29.017V28.7045H10V29.017C10 30.4607 11.0975 31.6401 12.5 31.7976V33.0476C9.34625 32.7332 6.875 30.0645 6.875 26.8295ZM13.75 33.0476V31.7976C15.1525 31.6401 16.25 30.4607 16.25 29.017C16.25 27.4663 14.9881 26.2045 13.4375 26.2045H12.8125C11.9506 26.2045 11.25 25.5032 11.25 24.642C11.25 23.7807 11.9506 23.0795 12.8125 23.0795H13.4375C14.2994 23.0795 15 23.7807 15 24.642V24.9545H16.25V24.642C16.25 23.1982 15.1525 22.0188 13.75 21.8613V20.6113C16.9038 20.9257 19.375 23.5945 19.375 26.8295C19.375 30.0645 16.9038 32.7332 13.75 33.0476ZM38.3225 20.032L35 18.9245V18.1251H35.625C35.757 18.1251 35.8856 18.0833 35.9924 18.0058C36.0992 17.9282 36.1787 17.8188 36.2195 17.6933C36.2603 17.5678 36.2603 17.4325 36.2195 17.307C36.1788 17.1815 36.0993 17.0721 35.9925 16.9945L34.375 15.8182V12.5001C34.375 12.3343 34.3092 12.1754 34.1919 12.0581C34.0747 11.9409 33.9158 11.8751 33.75 11.8751H31.25C31.0842 11.8751 30.9253 11.9409 30.8081 12.0581C30.6908 12.1754 30.625 12.3343 30.625 12.5001V13.0907L29.1175 11.9945C29.0107 11.9168 28.882 11.875 28.75 11.875C28.618 11.875 28.4893 11.9168 28.3825 11.9945L21.5075 16.9945C21.4003 17.0718 21.3205 17.1812 21.2794 17.3069C21.2384 17.4326 21.2383 17.568 21.2792 17.6937C21.32 17.8194 21.3997 17.9289 21.5068 18.0065C21.6139 18.084 21.7428 18.1255 21.875 18.1251H22.5V26.2501C22.5 26.4158 22.5658 26.5748 22.6831 26.692C22.8003 26.8092 22.9592 26.8751 23.125 26.8751H38.125C38.2908 26.8751 38.4497 26.8092 38.5669 26.692C38.6842 26.5748 38.75 26.4158 38.75 26.2501V20.6251C38.75 20.4939 38.7088 20.366 38.632 20.2595C38.5553 20.153 38.447 20.0734 38.3225 20.032ZM28.75 13.2726L30.8825 14.8232C30.9757 14.891 31.0858 14.9316 31.2007 14.9407C31.3156 14.9498 31.4307 14.927 31.5334 14.8747C31.6361 14.8225 31.7224 14.7428 31.7827 14.6446C31.8429 14.5464 31.8749 14.4334 31.875 14.3182V13.1251H33.125V16.1363C33.125 16.235 33.1483 16.3322 33.1931 16.4201C33.2378 16.5079 33.3027 16.584 33.3825 16.642L33.7031 16.8751H23.7969L28.75 13.2726ZM30 25.6251H27.5V21.8751H30V25.6251ZM31.25 25.6251V21.2501C31.25 21.0843 31.1842 20.9254 31.0669 20.8081C30.9497 20.6909 30.7908 20.6251 30.625 20.6251H26.875C26.7092 20.6251 26.5503 20.6909 26.4331 20.8081C26.3158 20.9254 26.25 21.0843 26.25 21.2501V25.6251H23.75V18.1251H33.75V25.6251H31.25ZM37.5 25.6251H35V20.2426L37.5 21.0757V25.6251Z" fill="#FF6647"/>
</g>
</g>
</svg>
