<svg width="40" height="40" viewBox="0 0 40 40" fill="none" xmlns="http://www.w3.org/2000/svg">
<g id="Frame">
<g id="Group">
<path id="Vector" d="M38.125 1.25H1.875C1.70924 1.25 1.55027 1.31585 1.43306 1.43306C1.31585 1.55027 1.25 1.70924 1.25 1.875V29.375C1.25 29.5408 1.31585 29.6997 1.43306 29.8169C1.55027 29.9342 1.70924 30 1.875 30H4.375V28.75H2.5V12.5H21.25C21.4158 12.5 21.5747 12.4342 21.6919 12.3169C21.8092 12.1997 21.875 12.0408 21.875 11.875V2.5H23.75V13.125C23.7499 13.2491 23.7868 13.3704 23.8559 13.4735C23.925 13.5766 24.0233 13.6567 24.1381 13.7038L37.5 19.17V22.8169L27.7381 18.7975C27.6627 18.7659 27.5818 18.7498 27.5 18.75H24.375C24.2092 18.75 24.0503 18.8158 23.9331 18.9331C23.8158 19.0503 23.75 19.2092 23.75 19.375V24.375H25V20H27.3762L37.5 24.1687V28.75H26.875V30H38.125C38.2908 30 38.4497 29.9342 38.5669 29.8169C38.6842 29.6997 38.75 29.5408 38.75 29.375V1.875C38.75 1.70924 38.6842 1.55027 38.5669 1.43306C38.4497 1.31585 38.2908 1.25 38.125 1.25ZM2.5 2.5H10V11.25H2.5V2.5ZM20.625 11.25H11.25V2.5H20.625V11.25ZM25 12.7056V2.5H37.5V17.8188L25 12.7056Z" fill="#FF6647"/>
<path id="Vector_2" d="M22.5 23.125C22.5 17.9556 18.2944 13.75 13.125 13.75C7.95563 13.75 3.75 17.9556 3.75 23.125C3.75 28.2944 7.95563 32.5 13.125 32.5C15.005 32.5 16.7537 31.9387 18.2231 30.9819L19.1163 31.875L17.0581 33.9331L17.9419 34.8169L18.4375 34.3213L21.6475 37.5319C22.0331 37.9192 22.4916 38.2263 22.9965 38.4354C23.5015 38.6445 24.0428 38.7514 24.5894 38.75C25.6925 38.7488 26.7501 38.3101 27.5301 37.5301C28.3101 36.7501 28.7488 35.6925 28.75 34.5894C28.7517 34.0428 28.6448 33.5012 28.4356 32.9962C28.2264 32.4912 27.919 32.0328 27.5312 31.6475L24.3213 28.4375L24.8169 27.9419L23.9331 27.0581L21.875 29.1162L20.9819 28.2231C21.9729 26.7075 22.5005 24.9358 22.5 23.125ZM5 23.125C5 18.645 8.645 15 13.125 15C17.605 15 21.25 18.645 21.25 23.125C21.25 27.605 17.605 31.25 13.125 31.25C8.645 31.25 5 27.605 5 23.125ZM26.6475 32.5319C26.9187 32.8013 27.1337 33.122 27.28 33.4751C27.4264 33.8283 27.5012 34.2071 27.5 34.5894C27.4992 35.3611 27.1923 36.1009 26.6466 36.6466C26.1009 37.1923 25.3611 37.4992 24.5894 37.5C24.207 37.501 23.8282 37.4262 23.4749 37.2799C23.1217 37.1335 22.8009 36.9186 22.5312 36.6475L19.3212 33.4375L23.4375 29.3213L26.6475 32.5319ZM20.9912 30L20 30.9912L19.2319 30.2231C19.5862 29.9175 19.9175 29.5862 20.2231 29.2319L20.9912 30Z" fill="#FF6647"/>
<path id="Vector_3" d="M13.125 16.25C9.33437 16.25 6.25 19.3344 6.25 23.125C6.25 26.9156 9.33437 30 13.125 30C16.9156 30 20 26.9156 20 23.125C20 19.3344 16.9156 16.25 13.125 16.25ZM13.125 28.75C10.0231 28.75 7.5 26.2262 7.5 23.125C7.5 20.0238 10.0231 17.5 13.125 17.5C16.2269 17.5 18.75 20.0238 18.75 23.125C18.75 26.2262 16.2269 28.75 13.125 28.75Z" fill="#FF6647"/>
<path id="Vector_4" d="M17.2761 22.019L13.9261 19.2272C13.7013 19.04 13.418 18.9375 13.1255 18.9375C12.8329 18.9375 12.5497 19.04 12.3248 19.2272L8.97547 22.0184C8.87662 22.1006 8.80551 22.2113 8.77183 22.3353C8.73815 22.4594 8.74355 22.5908 8.78728 22.7117C8.83101 22.8326 8.91096 22.937 9.01621 23.0108C9.12147 23.0846 9.24692 23.1241 9.37547 23.1241H10.0005V24.9991C10.0005 25.6884 10.5611 26.2491 11.2505 26.2491H15.0005C15.6898 26.2491 16.2505 25.6884 16.2505 24.9991V23.1241H16.8755C17.0039 23.1241 17.1293 23.0846 17.2345 23.0109C17.3397 22.9372 17.4196 22.8328 17.4634 22.7121C17.5072 22.5913 17.5127 22.46 17.4792 22.336C17.4457 22.212 17.3747 22.1013 17.2761 22.019ZM15.0005 23.1241V24.9991H13.7505V23.1241H12.5005V24.9991H11.2505V23.1241C11.2505 22.7278 11.0648 22.3741 10.7767 22.1453L13.1255 20.1878L15.4742 22.1453C15.3265 22.2621 15.2072 22.4109 15.1252 22.5804C15.0431 22.7499 15.0005 22.9357 15.0005 23.1241ZM34.7761 6.39405L31.4261 3.60217C31.2013 3.415 30.918 3.3125 30.6255 3.3125C30.3329 3.3125 30.0497 3.415 29.8248 3.60217L26.4755 6.39342C26.3766 6.4756 26.3055 6.58626 26.2718 6.71031C26.2382 6.83437 26.2435 6.9658 26.2873 7.08668C26.331 7.20756 26.411 7.31201 26.5162 7.38581C26.6215 7.4596 26.7469 7.49915 26.8755 7.49905H27.5005V9.37405C27.5005 10.0634 28.0611 10.6241 28.7505 10.6241H32.5005C33.1898 10.6241 33.7505 10.0634 33.7505 9.37405V7.49905H34.3755C34.5039 7.49912 34.6293 7.45961 34.7345 7.38589C34.8397 7.31218 34.9196 7.20784 34.9634 7.08708C35.0072 6.96632 35.0127 6.835 34.9792 6.71099C34.9457 6.58699 34.8747 6.47632 34.7761 6.39405ZM32.5005 7.49905V9.37405H31.2505V7.49905H30.0005V9.37405H28.7505V7.49905C28.7505 7.1028 28.5648 6.74905 28.2767 6.5203L30.6255 4.5628L32.9742 6.5203C32.8265 6.63713 32.7072 6.78587 32.6252 6.95537C32.5431 7.12487 32.5005 7.31074 32.5005 7.49905Z" fill="#FF6647"/>
</g>
</g>
</svg>
